<?xml version="1.0" encoding="UTF-8"?>
<!-- 2021-04-07 13:23:02 Generated by QCAD SVG Exporter -->
<svg width="78.46629798428563in" height="69.21010884999309in" viewBox="-10.476377952755906 -41.134421595182715 78.46629798428563 69.21010884999309" version="1.1" xmlns="http://www.w3.org/2000/svg" style="stroke-linecap:round;stroke-linejoin:round;fill:none">
    <g transform="scale(1,-1)">
        <!-- Text: KITE BALLOON FIN AND KEEL
WITH SEEM ALLOWANCES
SCALE: 1 = 1" 
MATHEW LIPPINCOTT 2019/08/20
HEAD FULL OF AIR LLC -->
        <!-- Block Reference: Fin / entities: 16 -->
        <g>
            <!-- Line -->
            <path d="M60.00000012000001,-1.05e-14 L62.811888299287055,12.179625809766705 " style="stroke:#000000;stroke-width:0;"/>
            <!-- Line -->
            <path d="M67.69602740538349,23.685936477876176 L62.81188829928706,12.179625809766705 " style="stroke:#000000;stroke-width:0;"/>
            <!-- Line -->
            <path d="M62.811888299287055,12.179625809766705 L45.77682044769006,17.714654881414575 " style="stroke:#ff00ff;stroke-width:0.00984251968503937;"/>
            <!-- Text: MIRROR AXIS -->
            <!-- Line -->
            <path d="M40.02098016475006,-1.0700000000000001e-14 L45.77682044769006,17.714654881414575 " style="stroke:#000000;stroke-width:0;"/>
            <!-- Line -->
            <path d="M38.16727696120697,-5.705111832353573 L53.38636393417318,41.134421595182715 " style="stroke:#ff00ff;stroke-width:0.00984251968503937;"/>
            <!-- Line -->
            <path d="M51.53266073063009,35.42930976282916 L45.77682044769007,17.714654881414575 " style="stroke:#000000;stroke-width:0;"/>
            <!-- Line -->
            <path d="M60.00000012,0.4999999999999857 L60.00000012000001,-1.42e-14 " style="stroke:#000000;stroke-width:0;"/>
            <!-- Line -->
            <path d="M40.02098016475006,-1.17e-14 L40.02098016475006,-0.5000000000000117 " style="stroke:#000000;stroke-width:0;"/>
            <!-- Line -->
            <path d="M40.02098016475006,-0.5000000000000117 L60.00000012,-0.5000000000000141 " style="stroke:#000000;stroke-width:0;"/>
            <!-- Line -->
            <path d="M51.826553356776344,35.83381826001663 L67.98992003152972,24.090444975063654 " style="stroke:#000000;stroke-width:0;"/>
            <!-- Line -->
            <path d="M60.00000012,-0.5000000000000141 L60.00000012000001,-1.45e-14 " style="stroke:#000000;stroke-width:0;"/>
            <!-- Line -->
            <path d="M60.00000012000001,-1.02e-14 L40.02098016475006,-6.500000000000001e-15 " style="stroke:#00ffff;stroke-width:0.00984251968503937;"/>
            <!-- Line -->
            <path d="M67.69602740538349,23.685936477876176 L51.53266073063009,35.42930976282915 " style="stroke:#00ffff;stroke-width:0.00984251968503937;"/>
            <!-- Line -->
            <path d="M51.532660730630106,35.42930976282915 L51.826553356776344,35.83381826001663 " style="stroke:#000000;stroke-width:0;"/>
            <!-- Line -->
            <path d="M67.69602740538349,23.685936477876176 L67.98992003152972,24.090444975063654 " style="stroke:#000000;stroke-width:0;"/>
        </g>
        <!-- Block Reference: Keel / entities: 11 -->
        <g>
            <!-- Line -->
            <path d="M6.999999999999996,-23 L59.99999999976,-2.9e-15 " style="stroke:#000000;stroke-width:0;"/>
            <!-- Line -->
            <path d="M-4.696148891466613,-28.07568725481038 L6.999999999999993,-23 " style="stroke:#ff00ff;stroke-width:0.00984251968503937;"/>
            <!-- Line -->
            <path d="M8e-16,-0.416666666665003 L8e-16,-2.9e-15 " style="stroke:#000000;stroke-width:0;"/>
            <!-- Line -->
            <path d="M7,0 L59.99999999976,-2.9e-15 " style="stroke:#00ffff;stroke-width:0.00984251968503937;"/>
            <!-- Line -->
            <path d="M7,0 L6.999999999999996,-23 " style="stroke:#000000;stroke-width:0;"/>
            <!-- Line -->
            <path d="M8e-16,-2.9e-15 L15,0 " style="stroke:#ff00ff;stroke-width:0.00984251968503937;"/>
            <!-- Line -->
            <path d="M8e-16,-2.9e-15 L-9,0 " style="stroke:#ff00ff;stroke-width:0.00984251968503937;"/>
            <!-- Line -->
            <path d="M-9,0 L-4.696148891466613,-28.07568725481038 " style="stroke:#ff00ff;stroke-width:0.00984251968503937;"/>
            <!-- Line -->
            <path d="M6.999999999999999,0 L6.999999999999999,0.5 " style="stroke:#000000;stroke-width:0;"/>
            <!-- Line -->
            <path d="M6.999999999999999,0.5 L59.99999999999999,0.4999999999999999 " style="stroke:#000000;stroke-width:0;"/>
            <!-- Line -->
            <path d="M59.99999999976001,-2.9e-15 L59.99999999999999,0.4999999999999999 " style="stroke:#000000;stroke-width:0;"/>
        </g>
        <!-- Block Reference: winglet / entities: 7 -->
        <g>
            <!-- Line -->
            <path d="M59.99999999976001,-1.42e-14 L34.166666666510025,-1.06e-14 " style="stroke:#00ffff;stroke-width:0.00984251968503937;"/>
            <!-- Line -->
            <path d="M38.16727684096698,-5.705111832353573 L40.020980044510054,-1.24e-14 " style="stroke:#ff00ff;stroke-width:0.00984251968503937;"/>
            <!-- Line -->
            <path d="M34.166666666510025,-1.06e-14 L38.16727684096698,-5.705111832353573 " style="stroke:#000000;stroke-width:0;"/>
            <!-- Line -->
            <path d="M38.16727684096698,-5.705111832353577 L59.99999999976002,-1.42e-14 " style="stroke:#000000;stroke-width:0;"/>
            <!-- Line -->
            <path d="M34.16666666651002,-1.06e-14 L34.16666666651002,0.49999999999998934 " style="stroke:#000000;stroke-width:0;"/>
            <!-- Line -->
            <path d="M34.16666666651002,0.49999999999998934 L59.999999999760014,0.4999999999999858 " style="stroke:#000000;stroke-width:0;"/>
            <!-- Line -->
            <path d="M59.999999999760014,0.4999999999999858 L59.99999999976002,-1.42e-14 " style="stroke:#000000;stroke-width:0;"/>
        </g>
        <!-- Block Reference: patch / entities: 10 -->
        <g>
            <!-- Arc -->
            <path d="M6.311023622047245,0.9842519685039227 A0.7874015748031495,0.7874015748031495 0 0,1 5.523622047244096,0.19685039370077329 " style="stroke:#000000;stroke-width:0;"/>
            <!-- Arc -->
            <path d="M5.523622047244096,-0.19685039370080154 A0.7874015748031495,0.7874015748031495 0 0,1 6.311023622047245,-0.9842519685039511 " style="stroke:#000000;stroke-width:0;"/>
            <!-- Arc -->
            <path d="M8.476377952755906,0.1968503937007732 A0.7874015748031495,0.7874015748031495 0 0,1 7.6889763779527565,0.9842519685039227 " style="stroke:#000000;stroke-width:0;"/>
            <!-- Arc -->
            <path d="M7.6889763779527565,-0.9842519685039511 A0.7874015748031495,0.7874015748031495 0 0,1 8.476377952755906,-0.19685039370080162 " style="stroke:#000000;stroke-width:0;"/>
            <!-- Line -->
            <path d="M6.311023622047245,0.9842519685039228 L7.6889763779527565,0.9842519685039228 " style="stroke:#000000;stroke-width:0;"/>
            <!-- Line -->
            <path d="M8.476377952755907,0.1968503937007732 L8.476377952755907,-0.19685039370080162 " style="stroke:#000000;stroke-width:0;"/>
            <!-- Line -->
            <path d="M5.5236220472440944,0.1968503937007732 L5.5236220472440944,-0.19685039370080162 " style="stroke:#000000;stroke-width:0;"/>
            <!-- Line -->
            <path d="M6.311023622047245,-0.9842519685039512 L7.6889763779527565,-0.9842519685039512 " style="stroke:#000000;stroke-width:0;"/>
            <!-- Line -->
            <path d="M7.000000000000001,0.9842519685039228 L7.000000000000001,-0.9842519685039512 " style="stroke:#ff00ff;stroke-width:0.00984251968503937;"/>
            <!-- Line -->
            <path d="M5.5236220472440944,-1.42e-14 L8.476377952755907,-1.42e-14 " style="stroke:#ff00ff;stroke-width:0.00984251968503937;"/>
        </g>
        <!-- Block Reference: patch / entities: 10 -->
        <g>
            <!-- Arc -->
            <path d="M14.311023622047244,0.9842519685039227 A0.7874015748031495,0.7874015748031495 0 0,1 13.523622047244094,0.19685039370077329 " style="stroke:#000000;stroke-width:0;"/>
            <!-- Arc -->
            <path d="M13.523622047244094,-0.19685039370080154 A0.7874015748031495,0.7874015748031495 0 0,1 14.311023622047244,-0.9842519685039511 " style="stroke:#000000;stroke-width:0;"/>
            <!-- Arc -->
            <path d="M16.476377952755904,0.1968503937007732 A0.7874015748031495,0.7874015748031495 0 0,1 15.688976377952756,0.9842519685039227 " style="stroke:#000000;stroke-width:0;"/>
            <!-- Arc -->
            <path d="M15.688976377952756,-0.9842519685039511 A0.7874015748031495,0.7874015748031495 0 0,1 16.476377952755904,-0.19685039370080162 " style="stroke:#000000;stroke-width:0;"/>
            <!-- Line -->
            <path d="M14.311023622047244,0.9842519685039228 L15.688976377952756,0.9842519685039228 " style="stroke:#000000;stroke-width:0;"/>
            <!-- Line -->
            <path d="M16.476377952755907,0.1968503937007732 L16.476377952755907,-0.19685039370080162 " style="stroke:#000000;stroke-width:0;"/>
            <!-- Line -->
            <path d="M13.523622047244094,0.1968503937007732 L13.523622047244094,-0.19685039370080162 " style="stroke:#000000;stroke-width:0;"/>
            <!-- Line -->
            <path d="M14.311023622047244,-0.9842519685039512 L15.688976377952756,-0.9842519685039512 " style="stroke:#000000;stroke-width:0;"/>
            <!-- Line -->
            <path d="M15,0.9842519685039228 L15,-0.9842519685039512 " style="stroke:#ff00ff;stroke-width:0.00984251968503937;"/>
            <!-- Line -->
            <path d="M13.523622047244094,-1.42e-14 L16.476377952755907,-1.42e-14 " style="stroke:#ff00ff;stroke-width:0.00984251968503937;"/>
        </g>
        <!-- Block Reference: patch / entities: 10 -->
        <g>
            <!-- Arc -->
            <path d="M-9.688976377952756,0.9842519685039227 A0.7874015748031495,0.7874015748031495 0 0,1 -10.476377952755906,0.19685039370077329 " style="stroke:#000000;stroke-width:0;"/>
            <!-- Arc -->
            <path d="M-10.476377952755906,-0.19685039370080154 A0.7874015748031495,0.7874015748031495 0 0,1 -9.688976377952756,-0.9842519685039511 " style="stroke:#000000;stroke-width:0;"/>
            <!-- Arc -->
            <path d="M-7.5236220472440944,0.1968503937007732 A0.7874015748031495,0.7874015748031495 0 0,1 -8.311023622047244,0.9842519685039227 " style="stroke:#000000;stroke-width:0;"/>
            <!-- Arc -->
            <path d="M-8.311023622047244,-0.9842519685039511 A0.7874015748031495,0.7874015748031495 0 0,1 -7.5236220472440944,-0.19685039370080162 " style="stroke:#000000;stroke-width:0;"/>
            <!-- Line -->
            <path d="M-9.688976377952756,0.9842519685039228 L-8.311023622047244,0.9842519685039228 " style="stroke:#000000;stroke-width:0;"/>
            <!-- Line -->
            <path d="M-7.5236220472440944,0.1968503937007732 L-7.5236220472440944,-0.19685039370080162 " style="stroke:#000000;stroke-width:0;"/>
            <!-- Line -->
            <path d="M-10.476377952755906,0.1968503937007732 L-10.476377952755906,-0.19685039370080162 " style="stroke:#000000;stroke-width:0;"/>
            <!-- Line -->
            <path d="M-9.688976377952756,-0.9842519685039512 L-8.311023622047244,-0.9842519685039512 " style="stroke:#000000;stroke-width:0;"/>
            <!-- Line -->
            <path d="M-9,0.9842519685039228 L-9,-0.9842519685039512 " style="stroke:#ff00ff;stroke-width:0.00984251968503937;"/>
            <!-- Line -->
            <path d="M-10.476377952755906,-1.42e-14 L-7.5236220472440944,-1.42e-14 " style="stroke:#ff00ff;stroke-width:0.00984251968503937;"/>
        </g>
        <!-- Block Reference: pocket / entities: 9 -->
        <g>
            <!-- Line -->
            <path d="M-7.999999999999999,-0.5 L62,-0.5 " style="stroke:#000000;stroke-width:0;"/>
            <!-- Line -->
            <path d="M62,-0.5 L62,0.4999999999999999 " style="stroke:#000000;stroke-width:0;"/>
            <!-- Line -->
            <path d="M62,0.4999999999999999 L-7.999999999999999,0.4999999999999999 " style="stroke:#000000;stroke-width:0;"/>
            <!-- Line -->
            <path d="M-7.999999999999999,0.4999999999999999 L-7.999999999999999,-0.5 " style="stroke:#000000;stroke-width:0;"/>
            <!-- Line -->
            <path d="M9e-16,0.4999999999999999 L9e-16,-0.5 " style="stroke:#ff00ff;stroke-width:0.00984251968503937;"/>
            <!-- Line -->
            <path d="M8,0.4999999999999999 L8,-0.5 " style="stroke:#00ffff;stroke-width:0.00984251968503937;"/>
            <!-- Line -->
            <path d="M60,0.4999999999999999 L60,-0.5 " style="stroke:#ff00ff;stroke-width:0.00984251968503937;"/>
            <!-- Line -->
            <path d="M58,0.4999999999999999 L58,-0.5 " style="stroke:#00ffff;stroke-width:0.00984251968503937;"/>
            <!-- Block Reference: patch / entities: 10 -->
            <g>
                <!-- Arc -->
                <path d="M-0.6889763779527559,0.9842519685039369 A0.7874015748031495,0.7874015748031495 0 0,1 -1.4763779527559056,0.1968503937007875 " style="stroke:#000000;stroke-width:0;"/>
                <!-- Arc -->
                <path d="M-1.4763779527559056,-0.19685039370078733 A0.7874015748031495,0.7874015748031495 0 0,1 -0.688976377952756,-0.9842519685039369 " style="stroke:#000000;stroke-width:0;"/>
                <!-- Arc -->
                <path d="M1.4763779527559056,0.1968503937007874 A0.7874015748031495,0.7874015748031495 0 0,1 0.6889763779527559,0.9842519685039369 " style="stroke:#000000;stroke-width:0;"/>
                <!-- Arc -->
                <path d="M0.6889763779527558,-0.9842519685039369 A0.7874015748031495,0.7874015748031495 0 0,1 1.4763779527559056,-0.1968503937007874 " style="stroke:#000000;stroke-width:0;"/>
                <!-- Line -->
                <path d="M-0.6889763779527559,0.984251968503937 L0.6889763779527559,0.984251968503937 " style="stroke:#000000;stroke-width:0;"/>
                <!-- Line -->
                <path d="M1.476377952755906,0.1968503937007874 L1.476377952755906,-0.1968503937007874 " style="stroke:#000000;stroke-width:0;"/>
                <!-- Line -->
                <path d="M-1.476377952755906,0.1968503937007874 L-1.476377952755906,-0.1968503937007874 " style="stroke:#000000;stroke-width:0;"/>
                <!-- Line -->
                <path d="M-0.6889763779527559,-0.984251968503937 L0.6889763779527556,-0.984251968503937 " style="stroke:#000000;stroke-width:0;"/>
                <!-- Line -->
                <path d="M0,0.984251968503937 L-2e-16,-0.984251968503937 " style="stroke:#ff00ff;stroke-width:0.00984251968503937;"/>
                <!-- Line -->
                <path d="M-1.476377952755906,0 L1.476377952755906,0 " style="stroke:#ff00ff;stroke-width:0.00984251968503937;"/>
            </g>
        </g>
        <!-- Line -->
        <path d="M37.80809032477876,-5.192890157617299 L38.74166259366478,-5.555019013871075 " style="stroke:#ff00ff;stroke-width:0.00984251968503937;"/>
        <!-- Block Reference: wingletpocket / entities: 27 -->
        <g>
            <!-- Line -->
            <path d="M38.16727566826475,-5.705115133311367 L53.386362641230924,41.134418294224936 " style="stroke:#ff00ff;stroke-width:0.00984251968503937;"/>
            <!-- Line -->
            <path d="M52.485681133185764,39.980090240500076 L52.17666417507141,39.02903371242314 " style="stroke:#000000;stroke-width:0;"/>
            <!-- Line -->
            <path d="M53.4365321836991,39.67114000600454 L53.76282799596237,40.675375132276024 " style="stroke:#000000;stroke-width:0;"/>
            <!-- Line -->
            <path d="M52.485681133185764,39.980090240500076 L52.79469816382097,40.931146745013564 " style="stroke:#000000;stroke-width:0;"/>
            <!-- Line -->
            <path d="M38.11710602802368,-4.241836813322642 L38.426123058659115,-3.2907803088092367 " style="stroke:#000000;stroke-width:0;"/>
            <!-- Line -->
            <path d="M39.06795707853741,-4.5507870478183055 L39.39425289080057,-3.546551921546793 " style="stroke:#000000;stroke-width:0;"/>
            <!-- Line -->
            <path d="M38.11710602802368,-4.241836813322642 L37.808089069909215,-5.192893341399541 " style="stroke:#000000;stroke-width:0;"/>
            <!-- Line -->
            <path d="M39.06795707853741,-4.5507870478183055 L38.74166133879522,-5.555022197653311 " style="stroke:#000000;stroke-width:0;"/>
            <!-- Line -->
            <path d="M53.4365321836991,39.67114000600454 L53.11023644395734,38.666904856169396 " style="stroke:#000000;stroke-width:0;"/>
            <!-- Line -->
            <path d="M52.79469816382148,40.9311467450134 L53.386362641230924,41.134418294224936 " style="stroke:#000000;stroke-width:0;"/>
            <!-- Line -->
            <path d="M52.17666417507141,39.02903371242314 L52.53585077342661,38.51681192051142 " style="stroke:#000000;stroke-width:0;"/>
            <!-- Line -->
            <path d="M38.42612305865911,-3.290780308809231 L39.017787536069065,-3.0875087595978656 " style="stroke:#000000;stroke-width:0;"/>
            <!-- Line -->
            <path d="M37.80808906990921,-5.192893341399545 L38.16727566826475,-5.705115133311367 " style="stroke:#000000;stroke-width:0;"/>
            <!-- Line -->
            <path d="M39.017787536069065,-3.0875087595978656 L39.39425289080058,-3.546551921546797 " style="stroke:#000000;stroke-width:0;"/>
            <!-- Line -->
            <path d="M38.16727566826475,-5.705115133311367 L38.741661338795225,-5.555022197653313 " style="stroke:#000000;stroke-width:0;"/>
            <!-- Line -->
            <path d="M53.386362641230924,41.134418294224936 L53.76282799596237,40.675375132276024 " style="stroke:#000000;stroke-width:0;"/>
            <!-- Line -->
            <path d="M52.53585077342661,38.51681192051142 L53.11023644395734,38.666904856169396 " style="stroke:#000000;stroke-width:0;"/>
            <!-- Line -->
            <path d="M38.11710602802368,-4.241836813322642 L39.06795707853741,-4.5507870478183055 " style="stroke:#ff00ff;stroke-width:0.00984251968503937;"/>
            <!-- Line -->
            <path d="M52.485681133185764,39.980090240500076 L53.4365321836991,39.67114000600454 " style="stroke:#ff00ff;stroke-width:0.00984251968503937;"/>
            <!-- Line -->
            <path d="M39.26345673970368,0.9046512815189374 L50.38806853720182,35.14268586814446 " style="stroke:#000000;stroke-width:0;"/>
            <!-- Line -->
            <path d="M50.38806853720182,35.14268586814446 L52.29018156979216,34.52465187939454 " style="stroke:#000000;stroke-width:0;"/>
            <!-- Line -->
            <path d="M52.29018156979216,34.52465187939455 L41.165569772293985,0.2866172927690416 " style="stroke:#000000;stroke-width:0;"/>
            <!-- Line -->
            <path d="M41.165569772293985,0.2866172927690407 L39.26345673970368,0.9046512815189374 " style="stroke:#000000;stroke-width:0;"/>
            <!-- Block Reference: patch / entities: 10 -->
            <g>
                <!-- Arc -->
                <path d="M44.62783449691555,17.363546691646096 A0.7874015748031495,0.7874015748031495 0 0,1 45.13337742756138,16.371362824976725 " style="stroke:#000000;stroke-width:0;"/>
                <!-- Arc -->
                <path d="M45.50780912689017,16.24970259097084 A0.7874015748031495,0.7874015748031495 0 0,1 46.49999299355954,16.755245521616672 " style="stroke:#000000;stroke-width:0;"/>
                <!-- Arc -->
                <path d="M46.04582918260551,19.17960056994273 A0.7874015748031495,0.7874015748031495 0 0,1 45.053645315936144,18.674057639296898 " style="stroke:#000000;stroke-width:0;"/>
                <!-- Arc -->
                <path d="M46.925803812580135,18.065756469267473 A0.7874015748031495,0.7874015748031495 0 0,1 46.420260881934304,19.057940335936845 " style="stroke:#000000;stroke-width:0;"/>
                <!-- Line -->
                <path d="M44.62783449691554,17.363546691646096 L45.05364531593614,18.674057639296898 " style="stroke:#000000;stroke-width:0;"/>
                <!-- Line -->
                <path d="M46.04582918260551,19.17960056994273 L46.42026088193431,19.057940335936845 " style="stroke:#000000;stroke-width:0;"/>
                <!-- Line -->
                <path d="M45.13337742756137,16.371362824976725 L45.50780912689017,16.24970259097084 " style="stroke:#000000;stroke-width:0;"/>
                <!-- Line -->
                <path d="M46.499992993559545,16.755245521616672 L46.92580381258014,18.065756469267473 " style="stroke:#000000;stroke-width:0;"/>
                <!-- Line -->
                <path d="M44.84073990642584,18.0188021654715 L46.71289840306984,17.41050099544207 " style="stroke:#ff00ff;stroke-width:0.00984251968503937;"/>
                <!-- Line -->
                <path d="M45.320593277225775,16.31053270797378 L46.23304503226991,19.11877045293979 " style="stroke:#ff00ff;stroke-width:0.00984251968503937;"/>
            </g>
            <!-- Line -->
            <path d="M45.32059327722577,16.310532707973778 L46.23304503226991,19.118770452939785 " style="stroke:#00ffff;stroke-width:0.00984251968503937;"/>
            <!-- Line -->
            <path d="M51.3110617902399,35.39451262594192 L51.342135253767395,35.49014691308645 " style="stroke:#ff00ff;stroke-width:0.00984251968503937;"/>
            <!-- Line -->
            <path d="M40.183439792470416,0.4999999999997682 L40.214513255998774,0.5956342871440059 " style="stroke:#ff00ff;stroke-width:0.00984251968503937;"/>
        </g>
        <!-- Block Reference: wingletreinforcement / entities: 3 -->
        <g>
            <!-- Arc -->
            <path d="M40.1023047712256,-5.199472417513924 A2,2 0 0,1 37.01899973139509,-4.067599293274797 " style="stroke:#000000;stroke-width:0;"/>
            <!-- Line -->
            <path d="M37.01899973139509,-4.067599293274796 L38.16727861563237,-5.705114363133632 " style="stroke:#000000;stroke-width:0;"/>
            <!-- Line -->
            <path d="M38.16727861563237,-5.705114363133632 L40.102304771225604,-5.199472417513922 " style="stroke:#000000;stroke-width:0;"/>
        </g>
        <!-- Block Reference: keelreinforcement / entities: 3 -->
        <g>
            <!-- Arc -->
            <path d="M8.834690022190841,-22.203813763951324 A2,2 0 0,1 7.000000000000003,-21.00000000000001 " style="stroke:#000000;stroke-width:0;"/>
            <!-- Line -->
            <path d="M7.000000000000002,-21.000000000000018 L7.000000000000001,-23.00000000000001 " style="stroke:#000000;stroke-width:0;"/>
            <!-- Line -->
            <path d="M7.000000000000001,-23.00000000000001 L8.834690022190841,-22.20381376395133 " style="stroke:#000000;stroke-width:0;"/>
        </g>
    </g>
</svg>
